<svg width="24" height="24" viewBox="0 0 24 24" fill="none" xmlns="http://www.w3.org/2000/svg">
<path d="M15 16L17.536 8.67203C17.6053 8.47154 17.7354 8.29765 17.9082 8.17457C18.081 8.05149 18.2879 7.98535 18.5 7.98535C18.7121 7.98535 18.919 8.05149 19.0918 8.17457C19.2646 8.29765 19.3947 8.47154 19.464 8.67203L22 16" stroke="#656565" stroke-width="2" stroke-linecap="round" stroke-linejoin="round"/>
<path d="M15.6953 14H21.3013" stroke="#656565" stroke-width="2" stroke-linecap="round" stroke-linejoin="round"/>
<path d="M2 15.9996L6.039 6.30955C6.07698 6.21846 6.14107 6.14064 6.22319 6.0859C6.30532 6.03116 6.4018 6.00195 6.5005 6.00195C6.5992 6.00195 6.69568 6.03116 6.77781 6.0859C6.85993 6.14064 6.92402 6.21846 6.962 6.30955L11 15.9996" stroke="#656565" stroke-width="2" stroke-linecap="round" stroke-linejoin="round"/>
<path d="M3.30469 13H9.69669" stroke="#656565" stroke-width="2" stroke-linecap="round" stroke-linejoin="round"/>
</svg>
