<svg width="29" height="30" viewBox="0 0 29 30" fill="none" xmlns="http://www.w3.org/2000/svg">
<path d="M14.179 29.6119L15.4697 17.7086L15.6361 15.2871L15.7761 13.2458L15.7943 12.9793C15.8601 12.0199 15.0987 11.2058 14.1371 11.2074C13.1774 11.209 12.4195 12.0223 12.4853 12.9797L12.5039 13.2496L12.6442 15.2889L12.8203 17.7163L14.0994 29.6126C14.1101 29.7673 14.168 29.7666 14.179 29.6119Z" fill="#D9D9D9"/>
<path d="M9.05617 6.04299C10.2349 6.04299 11.1905 5.08744 11.1905 3.9087C11.1905 2.72997 10.2349 1.77441 9.05617 1.77441C7.87743 1.77441 6.92188 2.72997 6.92188 3.9087C6.92188 5.08744 7.87743 6.04299 9.05617 6.04299Z" fill="#D9D9D9"/>
<path d="M14.0562 4.26858C15.2349 4.26858 16.1905 3.31302 16.1905 2.13429C16.1905 0.955554 15.2349 2.89634e-07 14.0562 1.86585e-07C12.8774 8.35372e-08 11.9219 0.955554 11.9219 2.13429C11.9219 3.31302 12.8774 4.26858 14.0562 4.26858Z" fill="#D9D9D9"/>
<path d="M19.0542 6.04299C20.233 6.04299 21.1885 5.08744 21.1885 3.9087C21.1885 2.72997 20.233 1.77441 19.0542 1.77441C17.8755 1.77441 16.9199 2.72997 16.9199 3.9087C16.9199 5.08744 17.8755 6.04299 19.0542 6.04299Z" fill="#D9D9D9"/>
<path d="M21.845 7.8265C19.3665 8.55343 16.3906 10.3336 14.1348 12.0736C15.2521 11.592 16.2919 11.0682 17.4099 10.7088C19.3876 10.073 21.6684 9.57358 23.5134 11.0778C24.4572 11.847 25.1326 13.0922 25.4267 14.6209C25.8285 16.7096 25.5531 18.9937 25.0291 20.9933C24.6557 22.4171 24.1622 23.7045 23.5851 24.9721C22.7927 26.712 21.8675 28.226 20.8714 29.7119C23.5408 27.4161 26.444 23.3187 27.5516 19.1077C27.978 17.4869 28.2145 15.7988 28.2634 14.0614C28.3375 11.4322 27.7421 8.91231 25.9445 7.96547C24.6727 7.29555 23.1601 7.44114 21.8447 7.82701L21.845 7.8265Z" fill="#D9D9D9"/>
<path d="M6.42452 7.8265C8.90305 8.55343 11.879 10.3336 14.1348 12.0736C13.0174 11.592 11.9777 11.0682 10.8596 10.7088C8.88192 10.073 6.60117 9.57358 4.75612 11.0778C3.8123 11.847 3.1369 13.0922 2.84284 14.6209C2.44107 16.7096 2.71642 18.9937 3.24046 20.9933C3.61383 22.4171 4.10739 23.7045 4.68442 24.9721C5.47688 26.712 6.402 28.226 7.39813 29.7119C4.72875 27.4161 1.82559 23.3187 0.71794 19.1077C0.291575 17.4869 0.0550138 15.7988 0.0061779 14.0614C-0.0679418 11.4322 0.527447 8.91231 2.32504 7.96547C3.59686 7.29555 5.1094 7.44114 6.42487 7.82701L6.42452 7.8265Z" fill="#D9D9D9"/>
</svg>
