<svg width="30" height="30" viewBox="0 0 30 30" fill="none" xmlns="http://www.w3.org/2000/svg">
<path d="M16.1605 27.3857L13.0584 27.3908L13.3028 23.8261L0.717085 23.8227L3.04094 21.7117L13.4482 21.7117L14.5747 6.05081C14.5841 5.91882 14.5512 5.83394 14.6095 5.71192C14.6642 5.83364 14.6352 5.92003 14.6442 6.05021L15.7614 21.7051L28.4541 21.658C28.4853 21.658 28.5046 21.6601 28.5118 21.6628C28.5191 21.6655 28.5019 21.686 28.4922 21.7102L20.3421 29.9999L23.6865 23.8276L15.9152 23.8245L16.1602 27.3857L16.1605 27.3857Z" fill="#D9D9D9"/>
<path d="M9.29847 6.41863C10.5505 6.41863 11.5654 5.40369 11.5654 4.1517C11.5654 2.89971 10.5505 1.88477 9.29847 1.88477C8.04648 1.88477 7.03154 2.89971 7.03154 4.1517C7.03154 5.40369 8.04648 6.41863 9.29847 6.41863Z" fill="#D9D9D9"/>
<path d="M14.609 4.53387C15.861 4.53387 16.876 3.51893 16.876 2.26693C16.876 1.01494 15.861 3.07634e-07 14.609 1.98182e-07C13.357 8.87289e-08 12.3421 1.01494 12.3421 2.26693C12.3421 3.51892 13.357 4.53387 14.609 4.53387Z" fill="#D9D9D9"/>
<path d="M19.9176 6.41863C21.1696 6.41863 22.1845 5.40369 22.1845 4.1517C22.1845 2.89971 21.1696 1.88477 19.9176 1.88477C18.6656 1.88477 17.6507 2.89971 17.6507 4.1517C17.6507 5.40369 18.6656 6.41863 19.9176 6.41863Z" fill="#D9D9D9"/>
<path d="M12.3167 17.5432C10.4008 18.5416 7.92028 19.5603 5.79987 20.0143C4.59571 20.2723 3.20456 20.3913 2.03544 19.9748C0.437654 19.4056 -0.0692634 17.8779 0.00777132 16.2946C0.056711 15.2908 0.259116 14.3183 0.618007 13.3812C1.57747 10.8759 4.12142 8.43105 6.45361 7.06738C5.53674 7.99512 4.69117 8.94673 3.97762 10.0433C3.51934 10.7475 3.12843 11.4565 2.82694 12.2402C2.36715 13.435 2.12094 14.8207 2.49312 16.0665C2.91485 17.4788 4.04831 18.3123 5.46182 18.5969C6.67353 18.841 8.55106 18.6211 9.71504 18.2879L12.317 17.5429L12.3167 17.5432Z" fill="#D9D9D9"/>
<path d="M23.6139 20.0551C21.4521 19.6237 18.8565 18.5673 16.889 17.5347C17.8635 17.8205 18.7704 18.1314 19.7456 18.3446C21.4706 18.722 23.4599 19.0183 25.0691 18.1256C25.8923 17.6692 26.4814 16.9302 26.7379 16.023C27.0883 14.7835 26.8482 13.428 26.3911 12.2414C26.0654 11.3964 25.635 10.6324 25.1317 9.8802C24.4405 8.84764 23.6336 7.9492 22.7647 7.06738C25.093 8.42984 27.6252 10.8614 28.5913 13.3604C28.9632 14.3222 29.1695 15.324 29.2121 16.355C29.2767 17.9154 28.7574 19.4107 27.1895 19.9726C26.0802 20.3702 24.761 20.2838 23.6136 20.0548L23.6139 20.0551Z" fill="#D9D9D9"/>
</svg>
